{
	"asset":{
		"generator":"Khronos glTF Blender I/O v4.2.60",
		"version":"2.0"
	},
	"scene":0,
	"scenes":[
		{
			"name":"Scene",
			"nodes":[
				0,
				1
			]
		}
	],
	"nodes":[
		{
			"mesh":0,
			"name":"base"
		},
		{
			"mesh":1,
			"name":"board"
		}
	],
	"materials":[
		{
			"doubleSided":true,
			"name":"Material",
			"pbrMetallicRoughness":{
				"baseColorFactor":[
					0.17299999296665192,
					0.003000000026077032,
					0,
					1
				],
				"metallicFactor":0.20000000298023224,
				"roughnessFactor":0.5
			}
		},
		{
			"name":"wire_17703",
			"pbrMetallicRoughness":{
				"baseColorFactor":[
					0.023000000044703484,
					0.027000000700354576,
					0.3269999921321869,
					1
				],
				"metallicFactor":0.25,
				"roughnessFactor":0.30000001192092896
			}
		}
	],
	"meshes":[
		{
			"name":"\ufffd\ufffd\ufffd\ufffd\ufffd001ok_1",
			"primitives":[
				{
					"attributes":{
						"POSITION":0,
						"NORMAL":1,
						"TEXCOORD_0":2
					},
					"indices":3,
					"material":0
				}
			]
		},
		{
			"name":"\ufffd\ufffd\ufffd\ufffd\ufffd001ok_1.003",
			"primitives":[
				{
					"attributes":{
						"POSITION":4,
						"NORMAL":5,
						"TEXCOORD_0":6
					},
					"indices":7,
					"material":1
				}
			]
		}
	],
	"accessors":[
		{
			"bufferView":0,
			"componentType":5126,
			"count":1527,
			"max":[
				15.02280044555664,
				317.1158142089844,
				7
			],
			"min":[
				-14.97719955444336,
				0,
				-7
			],
			"type":"VEC3"
		},
		{
			"bufferView":1,
			"componentType":5126,
			"count":1527,
			"type":"VEC3"
		},
		{
			"bufferView":2,
			"componentType":5126,
			"count":1527,
			"type":"VEC2"
		},
		{
			"bufferView":3,
			"componentType":5123,
			"count":6300,
			"type":"SCALAR"
		},
		{
			"bufferView":4,
			"componentType":5126,
			"count":378,
			"max":[
				64.93160247802734,
				300.18328857421875,
				1.000100016593933
			],
			"min":[
				-64.93160247802734,
				209.74679565429688,
				-1.414199948310852
			],
			"type":"VEC3"
		},
		{
			"bufferView":5,
			"componentType":5126,
			"count":378,
			"type":"VEC3"
		},
		{
			"bufferView":6,
			"componentType":5126,
			"count":378,
			"type":"VEC2"
		},
		{
			"bufferView":7,
			"componentType":5123,
			"count":600,
			"type":"SCALAR"
		}
	],
	"bufferViews":[
		{
			"buffer":0,
			"byteLength":18324,
			"byteOffset":0,
			"target":34962
		},
		{
			"buffer":0,
			"byteLength":18324,
			"byteOffset":18324,
			"target":34962
		},
		{
			"buffer":0,
			"byteLength":12216,
			"byteOffset":36648,
			"target":34962
		},
		{
			"buffer":0,
			"byteLength":12600,
			"byteOffset":48864,
			"target":34963
		},
		{
			"buffer":0,
			"byteLength":4536,
			"byteOffset":61464,
			"target":34962
		},
		{
			"buffer":0,
			"byteLength":4536,
			"byteOffset":66000,
			"target":34962
		},
		{
			"buffer":0,
			"byteLength":3024,
			"byteOffset":70536,
			"target":34962
		},
		{
			"buffer":0,
			"byteLength":1200,
			"byteOffset":73560,
			"target":34963
		}
	],
	"buffers":[
		{
			"byteLength":74760,
			"uri":"StationBoard.bin"
		}
	]
}
